<svg xmlns="http://www.w3.org/2000/svg" xmlns:xlink="http://www.w3.org/1999/xlink" width="500" zoomAndPan="magnify" viewBox="0 0 375 374.999991" height="500" preserveAspectRatio="xMidYMid meet" version="1.0"><defs><g/></defs><rect x="-37.5" width="450" fill="#ffffff" y="-37.499999" height="449.999989" fill-opacity="1"/><rect x="-37.5" width="450" fill="#1c1c1c" y="-37.499999" height="449.999989" fill-opacity="1"/><g fill="#ffffff" fill-opacity="1"><g transform="translate(183.607679, 245.924769)"><g><path d="M 12.421875 -19.90625 L 16.96875 -19.90625 C 17.8125 -19.90625 18.484375 -19.78125 18.984375 -19.53125 C 19.484375 -19.28125 19.875 -18.921875 20.15625 -18.453125 C 20.445312 -17.992188 20.664062 -17.4375 20.8125 -16.78125 C 20.96875 -16.132812 21.125 -15.410156 21.28125 -14.609375 C 21.394531 -14.066406 21.546875 -13.796875 21.734375 -13.796875 C 21.972656 -13.796875 22.09375 -14.046875 22.09375 -14.546875 L 22.09375 -26.234375 C 22.09375 -26.691406 21.972656 -26.921875 21.734375 -26.921875 C 21.546875 -26.921875 21.394531 -26.648438 21.28125 -26.109375 C 21.125 -25.304688 20.96875 -24.578125 20.8125 -23.921875 C 20.664062 -23.273438 20.445312 -22.71875 20.15625 -22.25 C 19.875 -21.789062 19.484375 -21.4375 18.984375 -21.1875 C 18.484375 -20.945312 17.8125 -20.828125 16.96875 -20.828125 L 12.421875 -20.828125 L 12.421875 -37.734375 L 21.171875 -37.734375 C 22.472656 -37.734375 23.5625 -37.414062 24.4375 -36.78125 C 25.320312 -36.144531 26.03125 -35.359375 26.5625 -34.421875 C 27.101562 -33.484375 27.5 -32.484375 27.75 -31.421875 C 28 -30.367188 28.144531 -29.421875 28.1875 -28.578125 C 28.1875 -28.046875 28.335938 -27.78125 28.640625 -27.78125 C 28.910156 -27.78125 29.046875 -28.03125 29.046875 -28.53125 L 29.046875 -37.265625 C 29.046875 -38.191406 28.566406 -38.65625 27.609375 -38.65625 L 1.890625 -38.65625 L 1.890625 -37.734375 L 6.84375 -37.734375 L 6.84375 -0.921875 L 1.953125 -0.921875 L 1.953125 0 L 28.984375 0 C 30.097656 0 30.65625 -0.613281 30.65625 -1.84375 L 30.65625 -10.46875 C 30.65625 -11.382812 30.503906 -11.84375 30.203125 -11.84375 C 29.929688 -11.84375 29.71875 -11.441406 29.5625 -10.640625 C 29.257812 -9.179688 28.929688 -7.859375 28.578125 -6.671875 C 28.234375 -5.484375 27.773438 -4.457031 27.203125 -3.59375 C 26.628906 -2.726562 25.898438 -2.066406 25.015625 -1.609375 C 24.140625 -1.148438 23.03125 -0.921875 21.6875 -0.921875 L 12.421875 -0.921875 Z M 12.421875 -19.90625 "/></g></g></g><g fill="#ffffff" fill-opacity="1"><g transform="translate(216.62431, 245.924769)"><g><path d="M 14.71875 -37.734375 L 19.09375 -37.734375 L 19.09375 -20.25 C 17.675781 -22.3125 15.585938 -23.34375 12.828125 -23.34375 C 11.441406 -23.34375 10.097656 -23 8.796875 -22.3125 C 7.492188 -21.625 6.34375 -20.710938 5.34375 -19.578125 C 4.351562 -18.453125 3.550781 -17.171875 2.9375 -15.734375 C 2.320312 -14.296875 2.015625 -12.828125 2.015625 -11.328125 C 2.015625 -9.722656 2.347656 -8.179688 3.015625 -6.703125 C 3.691406 -5.222656 4.546875 -3.925781 5.578125 -2.8125 C 6.609375 -1.707031 7.753906 -0.828125 9.015625 -0.171875 C 10.285156 0.484375 11.5 0.8125 12.65625 0.8125 C 14.1875 0.8125 15.46875 0.425781 16.5 -0.34375 C 17.539062 -1.113281 18.40625 -1.992188 19.09375 -2.984375 L 19.09375 0 L 28.40625 0 L 28.40625 -0.921875 L 24.046875 -0.921875 L 24.046875 -38.65625 L 14.71875 -38.65625 Z M 8 -12.765625 C 8 -16.335938 8.378906 -18.84375 9.140625 -20.28125 C 9.910156 -21.71875 11.21875 -22.4375 13.0625 -22.4375 C 13.863281 -22.4375 14.578125 -22.300781 15.203125 -22.03125 C 15.835938 -21.757812 16.394531 -21.398438 16.875 -20.953125 C 17.351562 -20.515625 17.773438 -20.046875 18.140625 -19.546875 C 18.503906 -19.054688 18.820312 -18.582031 19.09375 -18.125 L 19.09375 -4.65625 C 18.25 -3.238281 17.316406 -2.125 16.296875 -1.3125 C 15.285156 -0.507812 14.148438 -0.109375 12.890625 -0.109375 C 12.078125 -0.109375 11.363281 -0.269531 10.75 -0.59375 C 10.132812 -0.925781 9.625 -1.460938 9.21875 -2.203125 C 8.820312 -2.953125 8.519531 -3.957031 8.3125 -5.21875 C 8.101562 -6.488281 8 -8.066406 8 -9.953125 Z M 8 -12.765625 "/></g></g></g><g fill="#ffffff" fill-opacity="1"><g transform="translate(246.4198, 245.924769)"><g><path d="M 11.328125 -22.546875 L 2.078125 -22.546875 L 2.078125 -21.625 L 6.390625 -21.625 L 6.390625 -0.921875 L 2.078125 -0.921875 L 2.078125 0 L 15.640625 0 L 15.640625 -0.921875 L 11.328125 -0.921875 Z M 11.796875 -33.1875 C 11.796875 -34.03125 11.503906 -34.738281 10.921875 -35.3125 C 10.347656 -35.882812 9.640625 -36.171875 8.796875 -36.171875 C 7.953125 -36.171875 7.242188 -35.882812 6.671875 -35.3125 C 6.097656 -34.738281 5.8125 -34.03125 5.8125 -33.1875 C 5.8125 -32.34375 6.097656 -31.632812 6.671875 -31.0625 C 7.242188 -30.488281 7.953125 -30.203125 8.796875 -30.203125 C 9.640625 -30.203125 10.347656 -30.488281 10.921875 -31.0625 C 11.503906 -31.632812 11.796875 -32.34375 11.796875 -33.1875 Z M 11.796875 -33.1875 "/></g></g></g><g fill="#ffffff" fill-opacity="1"><g transform="translate(263.330756, 245.924769)"><g><path d="M 11.046875 -18.171875 L 11.046875 -22.546875 L 2.078125 -22.546875 L 2.078125 -21.625 L 6.09375 -21.625 L 6.09375 -0.921875 L 2.078125 -0.921875 L 2.078125 0 L 15.0625 0 L 15.0625 -0.921875 L 11.046875 -0.921875 L 11.046875 -15.1875 C 11.046875 -15.832031 11.21875 -16.53125 11.5625 -17.28125 C 11.90625 -18.03125 12.351562 -18.726562 12.90625 -19.375 C 13.46875 -20.03125 14.101562 -20.566406 14.8125 -20.984375 C 15.519531 -21.410156 16.257812 -21.625 17.03125 -21.625 C 18.132812 -21.625 18.945312 -21.28125 19.46875 -20.59375 C 19.988281 -19.90625 20.25 -18.8125 20.25 -17.3125 L 20.25 -0.921875 L 16.21875 -0.921875 L 16.21875 0 L 29.21875 0 L 29.21875 -0.921875 L 25.1875 -0.921875 L 25.1875 -17.71875 C 25.1875 -19.707031 24.617188 -21.082031 23.484375 -21.84375 C 22.359375 -22.613281 20.914062 -23 19.15625 -23 C 17.039062 -23 15.320312 -22.519531 14 -21.5625 C 12.675781 -20.601562 11.691406 -19.472656 11.046875 -18.171875 Z M 11.046875 -18.171875 "/></g></g></g><g fill="#ffffff" fill-opacity="1"><g transform="translate(91.513566, 207.174506)"><g><path d="M 3.21875 -1.515625 L 3.21875 0 L 19.921875 0 L 19.921875 -1.515625 L 12.328125 -1.515625 L 12.328125 -60.609375 L 33.484375 0 L 34.71875 0 L 55.859375 -60.984375 L 55.859375 -1.515625 L 48.28125 -1.515625 L 48.28125 0 L 72.65625 0 L 72.65625 -1.515625 L 65.0625 -1.515625 L 65.0625 -62.21875 L 72.65625 -62.21875 L 72.65625 -63.734375 L 55.109375 -63.734375 L 38.21875 -14.984375 L 20.765625 -63.734375 L 3.21875 -63.734375 L 3.21875 -62.21875 L 10.8125 -62.21875 L 10.8125 -1.515625 Z M 3.21875 -1.515625 "/></g></g></g><g fill="#ffffff" fill-opacity="1"><g transform="translate(167.097553, 207.174506)"><g><path d="M 33.484375 -7.109375 L 33.484375 0 L 48.28125 0 L 48.28125 -1.515625 L 41.640625 -1.515625 L 41.640625 -37.171875 L 26.84375 -37.171875 L 26.84375 -35.65625 L 33.484375 -35.65625 L 33.484375 -12.046875 C 33.484375 -11.035156 33.179688 -9.925781 32.578125 -8.71875 C 31.972656 -7.519531 31.164062 -6.398438 30.15625 -5.359375 C 29.144531 -4.316406 27.972656 -3.445312 26.640625 -2.75 C 25.316406 -2.050781 23.960938 -1.703125 22.578125 -1.703125 C 20.359375 -1.703125 18.929688 -2.238281 18.296875 -3.3125 C 17.671875 -4.394531 17.359375 -6.132812 17.359375 -8.53125 L 17.359375 -37.171875 L 2.5625 -37.171875 L 2.5625 -35.65625 L 9.203125 -35.65625 L 9.203125 -9.203125 C 9.203125 -7.179688 9.453125 -5.503906 9.953125 -4.171875 C 10.460938 -2.847656 11.160156 -1.804688 12.046875 -1.046875 C 12.929688 -0.285156 13.957031 0.25 15.125 0.5625 C 16.289062 0.882812 17.507812 1.046875 18.78125 1.046875 C 22.132812 1.046875 25.054688 0.335938 27.546875 -1.078125 C 30.046875 -2.503906 32.023438 -4.515625 33.484375 -7.109375 Z M 33.484375 -7.109375 "/></g></g></g><g fill="#ffffff" fill-opacity="1"><g transform="translate(218.308784, 207.174506)"><g><path d="M 16.875 -31.671875 L 16.875 -37.171875 L 2.09375 -37.171875 L 2.09375 -35.65625 L 8.71875 -35.65625 L 8.71875 -1.515625 L 2.09375 -1.515625 L 2.09375 0 L 23.515625 0 L 23.515625 -1.515625 L 16.875 -1.515625 L 16.875 -27.5 C 16.875 -28.507812 17.175781 -29.550781 17.78125 -30.625 C 18.382812 -31.707031 19.175781 -32.691406 20.15625 -33.578125 C 21.132812 -34.460938 22.222656 -35.171875 23.421875 -35.703125 C 24.628906 -36.242188 25.800781 -36.515625 26.9375 -36.515625 C 27.632812 -36.515625 28.25 -36.46875 28.78125 -36.375 C 29.320312 -36.28125 29.59375 -36.039062 29.59375 -35.65625 C 29.59375 -35.34375 29.429688 -35.125 29.109375 -35 C 28.734375 -34.75 28.289062 -34.320312 27.78125 -33.71875 C 27.28125 -33.113281 27.03125 -32.179688 27.03125 -30.921875 C 27.03125 -29.585938 27.472656 -28.492188 28.359375 -27.640625 C 29.242188 -26.785156 30.414062 -26.359375 31.875 -26.359375 C 33.132812 -26.359375 34.238281 -26.785156 35.1875 -27.640625 C 36.132812 -28.492188 36.609375 -29.679688 36.609375 -31.203125 C 36.609375 -32.460938 36.351562 -33.519531 35.84375 -34.375 C 35.34375 -35.226562 34.695312 -35.925781 33.90625 -36.46875 C 33.113281 -37.007812 32.195312 -37.40625 31.15625 -37.65625 C 30.113281 -37.90625 29.054688 -38.03125 27.984375 -38.03125 C 26.460938 -38.03125 25.097656 -37.804688 23.890625 -37.359375 C 22.691406 -36.921875 21.617188 -36.382812 20.671875 -35.75 C 19.722656 -35.125 18.929688 -34.445312 18.296875 -33.71875 C 17.671875 -32.988281 17.195312 -32.304688 16.875 -31.671875 Z M 16.875 -31.671875 "/></g></g></g><g fill="#ffffff" fill-opacity="1"><g transform="translate(256.243028, 207.174506)"><g><path d="M 16.78125 -37.171875 L 16.78125 -52.0625 L 8.625 -47.984375 L 8.625 -37.171875 L 2.1875 -37.171875 L 2.1875 -35.65625 L 8.625 -35.65625 L 8.625 -10.046875 C 8.625 -6.515625 9.570312 -3.734375 11.46875 -1.703125 C 13.375 0.316406 16.128906 1.328125 19.734375 1.328125 C 23.460938 1.328125 26.097656 0.585938 27.640625 -0.890625 C 29.191406 -2.378906 30.191406 -4.421875 30.640625 -7.015625 C 30.703125 -7.335938 30.734375 -7.53125 30.734375 -7.59375 C 30.734375 -7.65625 30.734375 -7.75 30.734375 -7.875 C 30.734375 -8.375 30.539062 -8.625 30.15625 -8.625 C 29.65625 -8.625 29.375 -8.3125 29.3125 -7.6875 C 28.988281 -5.53125 28.257812 -3.835938 27.125 -2.609375 C 25.988281 -1.378906 24.597656 -0.765625 22.953125 -0.765625 C 20.734375 -0.765625 19.148438 -1.519531 18.203125 -3.03125 C 17.253906 -4.550781 16.78125 -6.828125 16.78125 -9.859375 L 16.78125 -35.65625 L 25.984375 -35.65625 L 25.984375 -37.171875 Z M 16.78125 -37.171875 "/></g></g></g><g fill="#ffffff" fill-opacity="1"><g transform="translate(288.297468, 207.174506)"><g><path d="M 18.6875 -37.171875 L 3.421875 -37.171875 L 3.421875 -35.65625 L 10.53125 -35.65625 L 10.53125 -1.515625 L 3.421875 -1.515625 L 3.421875 0 L 25.796875 0 L 25.796875 -1.515625 L 18.6875 -1.515625 Z M 19.4375 -54.71875 C 19.4375 -56.113281 18.960938 -57.285156 18.015625 -58.234375 C 17.066406 -59.179688 15.898438 -59.65625 14.515625 -59.65625 C 13.117188 -59.65625 11.945312 -59.179688 11 -58.234375 C 10.050781 -57.285156 9.578125 -56.113281 9.578125 -54.71875 C 9.578125 -53.332031 10.050781 -52.164062 11 -51.21875 C 11.945312 -50.269531 13.117188 -49.796875 14.515625 -49.796875 C 15.898438 -49.796875 17.066406 -50.269531 18.015625 -51.21875 C 18.960938 -52.164062 19.4375 -53.332031 19.4375 -54.71875 Z M 19.4375 -54.71875 "/></g></g></g><g fill="#ffffff" fill-opacity="1"><g transform="translate(316.179132, 207.174506)"><g><path d="M 28.453125 0.953125 C 23.898438 0.953125 19.882812 0.0351562 16.40625 -1.796875 C 12.925781 -3.628906 10.191406 -6.472656 8.203125 -10.328125 C 6.210938 -14.191406 5.21875 -19.128906 5.21875 -25.140625 C 5.21875 -31.390625 6.242188 -36.472656 8.296875 -40.390625 C 10.347656 -44.316406 13.175781 -47.195312 16.78125 -49.03125 C 20.382812 -50.863281 24.460938 -51.78125 29.015625 -51.78125 C 31.546875 -51.78125 34.03125 -51.507812 36.46875 -50.96875 C 38.90625 -50.4375 40.878906 -49.789062 42.390625 -49.03125 L 39.828125 -42.109375 C 38.316406 -42.679688 36.546875 -43.21875 34.515625 -43.71875 C 32.492188 -44.226562 30.597656 -44.484375 28.828125 -44.484375 C 18.835938 -44.484375 13.84375 -38.066406 13.84375 -25.234375 C 13.84375 -19.097656 15.0625 -14.398438 17.5 -11.140625 C 19.9375 -7.890625 23.554688 -6.265625 28.359375 -6.265625 C 31.078125 -6.265625 33.507812 -6.546875 35.65625 -7.109375 C 37.8125 -7.679688 39.773438 -8.378906 41.546875 -9.203125 L 41.546875 -1.796875 C 39.835938 -0.910156 37.953125 -0.234375 35.890625 0.234375 C 33.835938 0.710938 31.359375 0.953125 28.453125 0.953125 Z M 40.3125 -72.65625 L 40.3125 -71.703125 C 39.488281 -70.566406 38.300781 -69.097656 36.75 -67.296875 C 35.207031 -65.492188 33.535156 -63.691406 31.734375 -61.890625 C 29.929688 -60.085938 28.269531 -58.613281 26.75 -57.46875 L 21.25 -57.46875 L 21.25 -58.609375 C 22.132812 -59.753906 23.144531 -61.160156 24.28125 -62.828125 C 25.414062 -64.503906 26.519531 -66.210938 27.59375 -67.953125 C 28.675781 -69.691406 29.5625 -71.257812 30.25 -72.65625 Z M 40.3125 -72.65625 "/></g></g></g></svg>