<svg xmlns="http://www.w3.org/2000/svg" xmlns:xlink="http://www.w3.org/1999/xlink" width="500" zoomAndPan="magnify" viewBox="0 0 375 374.999991" height="500" preserveAspectRatio="xMidYMid meet" version="1.0"><defs><g/><clipPath id="cb1f99fe8f"><path d="M 141.023438 80.648438 L 252.023438 80.648438 L 252.023438 233.648438 L 141.023438 233.648438 Z M 141.023438 80.648438 " clip-rule="nonzero"/></clipPath></defs><rect x="-37.5" width="450" fill="#ffffff" y="-37.499999" height="449.999989" fill-opacity="1"/><rect x="-37.5" width="450" fill="#1c1c1c" y="-37.499999" height="449.999989" fill-opacity="1"/><g fill="#ffffff" fill-opacity="1"><g transform="translate(151.836667, 273.372865)"><g><path d="M 15.984375 0 C 16.359375 0 16.546875 -0.1875 16.546875 -0.5625 L 16.546875 -4.265625 C 16.546875 -4.640625 16.359375 -4.84375 15.984375 -4.84375 L 7.796875 -4.84375 L 7.796875 -7.34375 L 14.875 -7.34375 C 15.25 -7.34375 15.4375 -7.546875 15.4375 -7.90625 L 15.4375 -11.328125 C 15.4375 -11.703125 15.25 -11.90625 14.875 -11.90625 L 7.796875 -11.90625 L 7.796875 -16.515625 L 15.984375 -16.515625 C 16.359375 -16.515625 16.546875 -16.71875 16.546875 -17.09375 L 16.546875 -20.796875 C 16.546875 -21.171875 16.359375 -21.359375 15.984375 -21.359375 L 2.6875 -21.359375 C 2.3125 -21.359375 2.109375 -21.171875 2.109375 -20.796875 L 2.109375 -0.5625 C 2.109375 -0.1875 2.3125 0 2.6875 0 Z M 15.984375 0 "/></g></g></g><g fill="#ffffff" fill-opacity="1"><g transform="translate(175.162578, 273.372865)"><g><path d="M 9.828125 0 C 17.9375 0 21.46875 -3.984375 21.46875 -10.65625 C 21.46875 -17.421875 17.828125 -21.359375 9.828125 -21.359375 L 2.6875 -21.359375 C 2.3125 -21.359375 2.109375 -21.171875 2.109375 -20.796875 L 2.109375 -0.5625 C 2.109375 -0.1875 2.3125 0 2.6875 0 Z M 7.859375 -16.515625 L 9.859375 -16.515625 C 13.859375 -16.515625 15.78125 -14.4375 15.78125 -10.734375 C 15.78125 -7.03125 13.859375 -4.84375 9.859375 -4.84375 L 7.859375 -4.84375 Z M 7.859375 -16.515625 "/></g></g></g><g fill="#ffffff" fill-opacity="1"><g transform="translate(203.089964, 273.372865)"><g><path d="M 7.234375 0 C 7.609375 0 7.796875 -0.1875 7.796875 -0.5625 L 7.796875 -20.796875 C 7.796875 -21.171875 7.609375 -21.359375 7.234375 -21.359375 L 2.6875 -21.359375 C 2.3125 -21.359375 2.109375 -21.171875 2.109375 -20.796875 L 2.109375 -0.5625 C 2.109375 -0.1875 2.3125 0 2.6875 0 Z M 7.234375 0 "/></g></g></g><g fill="#ffffff" fill-opacity="1"><g transform="translate(218.158231, 273.372865)"><g><path d="M 7.0625 0 C 7.4375 0 7.640625 -0.1875 7.640625 -0.5625 L 7.640625 -10.765625 L 19.453125 0 C 20.34375 0.828125 20.984375 0.453125 20.984375 -0.515625 L 20.984375 -20.796875 C 20.984375 -21.171875 20.796875 -21.359375 20.421875 -21.359375 L 16.0625 -21.359375 C 15.6875 -21.359375 15.5 -21.171875 15.5 -20.796875 L 15.5 -10.953125 L 3.53125 -21.5 C 2.734375 -22.203125 2.140625 -21.84375 2.140625 -20.875 L 2.140625 -0.5625 C 2.140625 -0.1875 2.34375 0 2.71875 0 Z M 7.0625 0 "/></g></g></g><g fill="#ffffff" fill-opacity="1"><g transform="translate(146.824129, 290.874002)"><g><path d="M 3.03125 0 C 3.1875 0 3.265625 -0.078125 3.265625 -0.25 L 3.265625 -3.5 L 5.3125 -1.109375 C 5.421875 -0.984375 5.546875 -0.984375 5.65625 -1.109375 L 7.734375 -3.53125 L 7.734375 -0.25 C 7.734375 -0.078125 7.8125 0 7.96875 0 L 9.84375 0 C 10 0 10.09375 -0.078125 10.09375 -0.25 L 10.09375 -8.875 C 10.09375 -9.328125 9.78125 -9.4375 9.5 -9.078125 L 5.484375 -4.0625 L 1.5 -9.078125 C 1.21875 -9.453125 0.90625 -9.328125 0.90625 -8.875 L 0.90625 -0.25 C 0.90625 -0.078125 1 0 1.15625 0 Z M 3.03125 0 "/></g></g></g><g fill="#ffffff" fill-opacity="1"><g transform="translate(167.512788, 290.874002)"><g><path d="M 4.90625 0.25 C 7.140625 0.25 9.015625 -0.71875 9.015625 -3.0625 L 9.015625 -8.84375 C 9.015625 -9 8.9375 -9.078125 8.78125 -9.078125 L 6.78125 -9.078125 C 6.625 -9.078125 6.546875 -9 6.546875 -8.84375 L 6.546875 -3.703125 C 6.546875 -2.453125 5.984375 -1.9375 4.90625 -1.9375 C 3.859375 -1.9375 3.296875 -2.453125 3.296875 -3.703125 L 3.296875 -8.84375 C 3.296875 -9 3.203125 -9.078125 3.046875 -9.078125 L 1.046875 -9.078125 C 0.90625 -9.078125 0.8125 -9 0.8125 -8.84375 L 0.8125 -3.0625 C 0.8125 -0.71875 2.75 0.25 4.90625 0.25 Z M 4.90625 0.25 "/></g></g></g><g fill="#ffffff" fill-opacity="1"><g transform="translate(187.037206, 290.874002)"><g><path d="M 6.765625 -3.40625 C 7.65625 -3.875 8.171875 -4.84375 8.171875 -6.15625 C 8.171875 -7.71875 7.46875 -9.078125 4.90625 -9.078125 L 1.140625 -9.078125 C 0.984375 -9.078125 0.90625 -9 0.90625 -8.84375 L 0.90625 -0.25 C 0.90625 -0.078125 0.984375 0 1.140625 0 L 3.09375 0 C 3.25 0 3.328125 -0.078125 3.328125 -0.25 L 3.328125 -3.09375 L 4.359375 -3.09375 L 5.8125 -0.1875 C 5.875 -0.0625 5.953125 0 6.09375 0 L 8.296875 0 C 8.484375 0 8.546875 -0.125 8.46875 -0.296875 Z M 4.5 -7.03125 C 4.984375 -7.03125 5.75 -7.03125 5.75 -6.140625 C 5.75 -5.15625 4.828125 -5.15625 4.5 -5.15625 L 3.328125 -5.15625 L 3.328125 -7.03125 Z M 4.5 -7.03125 "/></g></g></g><g fill="#ffffff" fill-opacity="1"><g transform="translate(205.716514, 290.874002)"><g><path d="M 4.5 0 C 4.65625 0 4.75 -0.078125 4.75 -0.25 L 4.75 -7.03125 L 6.578125 -7.03125 C 6.734375 -7.03125 6.8125 -7.109375 6.8125 -7.265625 L 6.8125 -8.84375 C 6.8125 -9 6.734375 -9.078125 6.578125 -9.078125 L 0.484375 -9.078125 C 0.328125 -9.078125 0.25 -9 0.25 -8.84375 L 0.25 -7.265625 C 0.25 -7.109375 0.328125 -7.03125 0.484375 -7.03125 L 2.3125 -7.03125 L 2.3125 -0.25 C 2.3125 -0.078125 2.40625 0 2.546875 0 Z M 4.5 0 "/></g></g></g><g fill="#ffffff" fill-opacity="1"><g transform="translate(222.481028, 290.874002)"><g><path d="M 3.078125 0 C 3.234375 0 3.3125 -0.078125 3.3125 -0.25 L 3.3125 -8.84375 C 3.3125 -9 3.234375 -9.078125 3.078125 -9.078125 L 1.140625 -9.078125 C 0.984375 -9.078125 0.90625 -9 0.90625 -8.84375 L 0.90625 -0.25 C 0.90625 -0.078125 0.984375 0 1.140625 0 Z M 3.078125 0 "/></g></g></g><g fill="#ffffff" fill-opacity="1"><g transform="translate(236.391085, 290.874002)"><g><path d="M 5.9375 -9.8125 C 6.0625 -9.8125 6.15625 -9.859375 6.234375 -9.953125 L 7.28125 -11.234375 C 7.421875 -11.40625 7.34375 -11.53125 7.140625 -11.53125 L 5.75 -11.53125 C 5.609375 -11.53125 5.515625 -11.46875 5.453125 -11.359375 L 4.703125 -10.09375 C 4.609375 -9.9375 4.6875 -9.8125 4.875 -9.8125 Z M 5.453125 0.25 C 7.203125 0.25 8.59375 -0.40625 9.453125 -1.5 C 9.546875 -1.609375 9.5 -1.703125 9.375 -1.796875 L 7.78125 -2.875 C 7.65625 -2.953125 7.546875 -2.9375 7.453125 -2.8125 C 7 -2.265625 6.3125 -1.9375 5.453125 -1.9375 C 3.953125 -1.9375 2.953125 -2.9375 2.953125 -4.546875 C 2.953125 -6.15625 3.953125 -7.140625 5.453125 -7.140625 C 6.3125 -7.140625 7 -6.8125 7.453125 -6.28125 C 7.546875 -6.15625 7.65625 -6.125 7.78125 -6.21875 L 9.375 -7.28125 C 9.5 -7.375 9.53125 -7.484375 9.4375 -7.609375 C 8.5625 -8.6875 7.171875 -9.328125 5.453125 -9.328125 C 2.5 -9.328125 0.53125 -7.46875 0.53125 -4.546875 C 0.53125 -1.625 2.5 0.25 5.453125 0.25 Z M 5.453125 0.25 "/></g></g></g><g clip-path="url(#cb1f99fe8f)"><path fill="#ffffff" d="M 141.023438 80.652344 L 252.09375 80.652344 L 252.09375 115.207031 L 175.578125 115.207031 L 175.578125 136.949219 L 238.328125 136.949219 L 238.328125 171.503906 L 175.578125 171.503906 L 175.578125 198.9375 L 252.09375 198.9375 L 252.09375 233.492188 L 141.023438 233.492188 L 141.023438 192.800781 L 175.578125 171.503906 L 175.578125 136.949219 L 141.023438 158.464844 Z M 141.023438 80.652344 " fill-opacity="1" fill-rule="evenodd"/></g></svg>