<svg xmlns="http://www.w3.org/2000/svg" xmlns:xlink="http://www.w3.org/1999/xlink" width="500" zoomAndPan="magnify" viewBox="0 0 375 374.999991" height="500" preserveAspectRatio="xMidYMid meet" version="1.0"><defs><g/></defs><rect x="-37.5" width="450" fill="#ffffff" y="-37.499999" height="449.999989" fill-opacity="1"/><rect x="-37.5" width="450" fill="#1c1c1c" y="-37.499999" height="449.999989" fill-opacity="1"/><g fill="#ffffff" fill-opacity="1"><g transform="translate(150.85752, 229.82045)"><g><path d="M 37.28125 -23.046875 C 37.207031 -24.054688 36.867188 -25.445312 36.265625 -27.21875 C 35.671875 -28.988281 34.738281 -30.695312 33.46875 -32.34375 C 32.207031 -33.988281 30.535156 -35.425781 28.453125 -36.65625 C 26.367188 -37.882812 23.804688 -38.5 20.765625 -38.5 C 18.242188 -38.5 15.890625 -37.898438 13.703125 -36.703125 C 11.523438 -35.503906 9.644531 -33.957031 8.0625 -32.0625 C 6.476562 -30.164062 5.242188 -28.015625 4.359375 -25.609375 C 3.472656 -23.203125 3.03125 -20.769531 3.03125 -18.3125 C 3.03125 -15.84375 3.472656 -13.4375 4.359375 -11.09375 C 5.242188 -8.757812 6.476562 -6.675781 8.0625 -4.84375 C 9.644531 -3.007812 11.554688 -1.519531 13.796875 -0.375 C 16.046875 0.757812 18.5 1.328125 21.15625 1.328125 C 23.300781 1.328125 25.257812 1.023438 27.03125 0.421875 C 28.800781 -0.171875 30.363281 -0.988281 31.71875 -2.03125 C 33.082031 -3.082031 34.238281 -4.300781 35.1875 -5.6875 C 36.132812 -7.082031 36.894531 -8.535156 37.46875 -10.046875 C 37.65625 -10.492188 37.75 -10.9375 37.75 -11.375 C 37.75 -11.820312 37.554688 -12.046875 37.171875 -12.046875 C 36.859375 -12.046875 36.578125 -11.726562 36.328125 -11.09375 C 35.753906 -9.769531 35.039062 -8.441406 34.1875 -7.109375 C 33.332031 -5.785156 32.289062 -4.617188 31.0625 -3.609375 C 29.832031 -2.597656 28.425781 -1.773438 26.84375 -1.140625 C 25.257812 -0.503906 23.425781 -0.1875 21.34375 -0.1875 C 18.8125 -0.1875 16.769531 -1.132812 15.21875 -3.03125 C 13.675781 -4.925781 12.90625 -7.960938 12.90625 -12.140625 L 12.90625 -21.8125 L 35.75 -21.8125 C 36.769531 -21.8125 37.28125 -22.222656 37.28125 -23.046875 Z M 12.90625 -23.328125 L 12.90625 -27.125 C 12.90625 -29.207031 13.140625 -30.894531 13.609375 -32.1875 C 14.085938 -33.488281 14.703125 -34.488281 15.453125 -35.1875 C 16.210938 -35.882812 17.066406 -36.359375 18.015625 -36.609375 C 18.960938 -36.859375 19.910156 -36.984375 20.859375 -36.984375 C 22.378906 -36.984375 23.628906 -36.710938 24.609375 -36.171875 C 25.585938 -35.640625 26.363281 -34.929688 26.9375 -34.046875 C 27.507812 -33.160156 27.890625 -32.179688 28.078125 -31.109375 C 28.265625 -30.035156 28.359375 -28.929688 28.359375 -27.796875 C 28.359375 -24.816406 27.882812 -23.328125 26.9375 -23.328125 Z M 12.90625 -23.328125 "/></g></g></g><g fill="#ffffff" fill-opacity="1"><g transform="translate(158.721273, 207.174506)"><g><path d="M 3.21875 -1.515625 L 3.21875 0 L 19.921875 0 L 19.921875 -1.515625 L 12.328125 -1.515625 L 12.328125 -60.609375 L 33.484375 0 L 34.71875 0 L 55.859375 -60.984375 L 55.859375 -1.515625 L 48.28125 -1.515625 L 48.28125 0 L 72.65625 0 L 72.65625 -1.515625 L 65.0625 -1.515625 L 65.0625 -62.21875 L 72.65625 -62.21875 L 72.65625 -63.734375 L 55.109375 -63.734375 L 38.21875 -14.984375 L 20.765625 -63.734375 L 3.21875 -63.734375 L 3.21875 -62.21875 L 10.8125 -62.21875 L 10.8125 -1.515625 Z M 3.21875 -1.515625 "/></g></g></g></svg>